# xmcd CD database file
#
# Track frame offsets:
#	150
#	35100
#	68250
#	92325
#	112950
#	125625
#	181305
#
# Disc length: 2804 seconds
#
# Revision: 1
# Processed by: cddbd v1.5.2PL0 Copyright (c) Steve Scherf et al.
# Submitted via: CDex 1.70beta2
#
DISCID=520af207
DTITLE=Schiller - Die Einlassmusik 5
DYEAR=2008
DGENRE=New Age
TTITLE0=Teil I
TTITLE1=Teil II
TTITLE2=Teil III
TTITLE3=Teil IV
TTITLE4=Teil V
TTITLE5=Teil VI
TTITLE6=Teil VII
EXTD=YEAR: 2008
EXTT0=
EXTT1=
EXTT2=
EXTT3=
EXTT4=
EXTT5=
EXTT6=
PLAYORDER=
